<svg xmlns="http://www.w3.org/2000/svg" width="581.649" height="524.144" viewBox="0 0 581.649 524.144">
  <g id="Group_9" data-name="Group 9" transform="translate(-163.287 -1179.836)">
    <g id="Background_Shape_2" data-name="Background Shape 2" transform="translate(265.811 1517.245)">
      <path id="Background_Shape" data-name="Background Shape" d="M545.887,111.635c7.961,49.9-185.1,82.442-351.272,59.729S-47.789,59.955,31.506,12.695,537.927,61.739,545.887,111.635Z" transform="translate(-67 8)" fill="#d2e9eb"/>
    </g>
    <g id="Mobile3" transform="translate(218.482 1197.106)">
      <g id="Group" transform="translate(0 205.676)">
        <path id="Fill_16" data-name="Fill 16" d="M7.68,0c-1.25,0-2.5.025-3.744.09C2.984.14,1.53-.057.724.536-.112,1.152-.055,2.413.076,3.3c.691,4.709,2.377,8.886,5.9,12.222,5.431,5.138,11.658,7.748,19.025,8.911,5.175.817,9.953-.317,13.763-4a57.427,57.427,0,0,1,5.955,16.654,39.9,39.9,0,0,1,.59,8.56c-.059,1.857-.162,3.71-.361,5.558-.086.8-.5,2.019-.181,2.778a1.267,1.267,0,0,0,2.172.218c.465-.633.38-1.875.475-2.623.158-1.243.3-2.488.41-3.737.17-2.022.3-4.05.287-6.079A45.321,45.321,0,0,0,45.694,28.3C43.034,19.994,38.717,12.613,32,6.823c-4.128-3.561-8.853-5-14.213-5.777A71.259,71.259,0,0,0,7.68,0" transform="translate(3.774)" fill="#89c5cc"/>
        <path id="Fill_18" data-name="Fill 18" d="M30.73,0C17.239,0,8.154,10.873,3.858,22.173c-1.619,4.26-2,8.937-2.623,13.409-.2,1.435-.126,3.622-.709,4.9-.211.464-.7.63-.464,1.262a1.025,1.025,0,0,0,.829.693c.849.156,2.048-.768,2.776-1.133C9.7,38.279,13.665,33.6,16.9,27.875a57.159,57.159,0,0,0,5.23-11.128,38.464,38.464,0,0,0,1.4-7.355,28,28,0,0,0,.187-2.946,5.939,5.939,0,0,0-.782-2.328,19.879,19.879,0,0,1,14.142-.4,18.123,18.123,0,0,1,9.682,8.754A16.7,16.7,0,0,1,47.948,15.7a11.107,11.107,0,0,0,.544,2.325c.842,1.592,2.614.528,2.444-.954A19.166,19.166,0,0,0,45.074,5.909,21.086,21.086,0,0,0,30.73,0" transform="translate(0 33.021)" fill="#89c5cc"/>
      </g>
      <rect id="Container" width="150.012" height="284.928" rx="8" transform="translate(45.287)" fill="#dde3e9"/>
      <circle id="Touch" cx="14.152" cy="14.152" r="14.152" transform="translate(105.669 238.698)" fill="#fff"/>
      <g id="Camera" transform="translate(105.669 15.096)">
        <circle id="Lens" cx="1.887" cy="1.887" r="1.887" fill="#fff"/>
        <rect id="Sensor" width="19.813" height="3.774" rx="1.887" transform="translate(8.491)" fill="#fff"/>
      </g>
      <g id="Rows" transform="translate(58.495 26.417)">
        <g id="Row">
          <rect id="Container-2" data-name="Container" width="123.594" height="50.947" rx="4" fill="#fff"/>
          <g id="Text_Stuff" data-name="Text Stuff" transform="translate(8.491 15.284)">
            <rect id="Label" width="68.873" height="7.642" rx="3" fill="#dde3e9"/>
            <rect id="Label-2" data-name="Label" width="46.23" height="7.642" rx="3" transform="translate(0 12.737)" fill="#dde3e9"/>
          </g>
          <g id="Check" transform="translate(103.782 18.869)">
            <circle id="Background" cx="6.604" cy="6.604" r="6.604" fill="#dde3e9"/>
            <circle id="Indicator" cx="2.83" cy="2.83" r="2.83" transform="translate(3.774 3.774)" fill="#f2f2f2"/>
          </g>
        </g>
        <g id="Row-2" data-name="Row" transform="translate(0 58.495)">
          <rect id="Background-2" data-name="Background" width="123.594" height="39.626" rx="4" fill="#fff"/>
          <g id="Text" transform="translate(36.795 11.888)">
            <rect id="Name" width="68.873" height="5.944" rx="2.972" fill="#dde3e9"/>
            <rect id="Name-2" data-name="Name" width="46.23" height="5.944" rx="2.972" transform="translate(0 9.906)" fill="#dde3e9"/>
          </g>
          <circle id="Avatar" cx="11.322" cy="11.322" r="11.322" transform="translate(8.491 8.491)" fill="#c5cfd6"/>
        </g>
        <g id="Row-3" data-name="Row" transform="translate(0 105.669)">
          <rect id="Container-3" data-name="Container" width="123.594" height="39.626" rx="4" fill="#fff"/>
          <g id="Text_Stuff-2" data-name="Text Stuff" transform="translate(8.491 11.888)">
            <rect id="Label-3" data-name="Label" width="68.873" height="5.944" rx="2.972" fill="#dde3e9"/>
            <rect id="Label-4" data-name="Label" width="46.23" height="5.944" rx="2.972" transform="translate(0 9.906)" fill="#afb9c5"/>
          </g>
          <g id="Check-2" data-name="Check" transform="translate(103.782 13.209)">
            <circle id="Background-3" data-name="Background" cx="6.604" cy="6.604" r="6.604" fill="#dde3e9"/>
            <circle id="Indicator-2" data-name="Indicator" cx="2.83" cy="2.83" r="2.83" transform="translate(3.774 3.774)" fill="#f2f2f2"/>
          </g>
        </g>
        <g id="Row-4" data-name="Row" transform="translate(0 152.842)">
          <rect id="Background-4" data-name="Background" width="123.594" height="39.626" rx="4" fill="#fff"/>
          <g id="Text-2" data-name="Text" transform="translate(36.795 11.888)">
            <rect id="Name-3" data-name="Name" width="68.873" height="5.944" rx="2.972" fill="#dde3e9"/>
            <rect id="Name-4" data-name="Name" width="46.23" height="5.944" rx="2.972" transform="translate(0 9.906)" fill="#dde3e9"/>
          </g>
          <circle id="Avatar-2" data-name="Avatar" cx="11.322" cy="11.322" r="11.322" transform="translate(8.491 8.491)" fill="#c5cfd6"/>
        </g>
      </g>
    </g>
    <g id="Web" transform="translate(395.194 1232.359)">
      <rect id="Container-4" data-name="Container" width="316.062" height="326.44" rx="8" fill="#f2f2f2"/>
      <rect id="Background-5" data-name="Background" width="66.043" height="76.421" rx="8" transform="translate(234.924 40.569)" fill="#fff"/>
      <g id="Profile_Info" data-name="Profile Info" transform="translate(244.359 54.721)">
        <circle id="Avatar-3" data-name="Avatar" cx="15.096" cy="15.096" r="15.096" transform="translate(8.491)" fill="#dde3e9"/>
        <rect id="Name-5" data-name="Name" width="47.173" height="5.661" rx="2.83" transform="translate(0 33.965)" fill="#dde3e9"/>
        <rect id="Name-6" data-name="Name" width="32.078" height="5.661" rx="2.83" transform="translate(7.548 43.4)" fill="#dde3e9"/>
      </g>
      <path id="Header" d="M8,0H308.062a8,8,0,0,1,8,8V25.474a0,0,0,0,1,0,0H0a0,0,0,0,1,0,0V8A8,8,0,0,1,8,0Z" fill="#c5cfd6"/>
      <g id="Buttons" transform="translate(8.491 9.435)">
        <circle id="buttons-2" data-name="buttons" cx="3.774" cy="3.774" r="3.774" fill="#f2f2f2"/>
        <circle id="buttons-3" data-name="buttons" cx="3.774" cy="3.774" r="3.774" transform="translate(11.322)" fill="#f2f2f2"/>
        <circle id="buttons-4" data-name="buttons" cx="3.774" cy="3.774" r="3.774" transform="translate(22.643)" fill="#f2f2f2"/>
      </g>
      <g id="Components" transform="translate(234.924 124.538)">
        <rect id="Background-6" data-name="Background" width="66.043" height="183.033" rx="8" fill="#fff"/>
        <g id="Rows-2" data-name="Rows" transform="translate(16.982 16.982)">
          <rect id="Data" width="32.078" height="24.53" rx="4" fill="#dde3e9"/>
          <rect id="Data-2" data-name="Data" width="32.078" height="23.587" rx="4" transform="translate(0 32.078)" fill="#afb9c5"/>
          <rect id="Data-3" data-name="Data" width="32.078" height="23.587" rx="4" transform="translate(0 63.212)" fill="#dde3e9"/>
          <rect id="Data-4" data-name="Data" width="32.078" height="23.587" rx="4" transform="translate(0 125.481)" fill="#dde3e9"/>
          <rect id="Data-5" data-name="Data" width="32.078" height="23.587" rx="4" transform="translate(0 94.347)" fill="#c5cfd6"/>
        </g>
      </g>
      <g id="Rows-3" data-name="Rows" transform="translate(15.096 41.513)">
        <g id="Row-5" data-name="Row">
          <rect id="Container-5" data-name="Container" width="212.281" height="44.343" rx="4" fill="#fff"/>
          <g id="Text_Stuff-3" data-name="Text Stuff" transform="translate(8.491 13.303)">
            <rect id="Label-5" data-name="Label" width="157.559" height="6.651" rx="3" fill="#dde3e9"/>
            <rect id="Label-6" data-name="Label" width="105.759" height="6.651" rx="3" transform="translate(0 11.086)" fill="#dde3e9"/>
          </g>
          <g id="Check-3" data-name="Check" transform="translate(182.99 15.567)">
            <circle id="Background-7" data-name="Background" cx="6.604" cy="6.604" r="6.604" fill="#dde3e9"/>
            <circle id="Indicator-3" data-name="Indicator" cx="2.83" cy="2.83" r="2.83" transform="translate(3.774 3.774)" fill="#f2f2f2"/>
          </g>
        </g>
        <g id="Row-6" data-name="Row" transform="translate(0 51.891)">
          <rect id="Container-6" data-name="Container" width="212.281" height="36.795" rx="4" fill="#fff"/>
          <g id="Text_Stuff-4" data-name="Text Stuff" transform="translate(8.491 11.039)">
            <rect id="Label-7" data-name="Label" width="157.559" height="5.519" rx="2.76" fill="#dde3e9"/>
            <rect id="Label-8" data-name="Label" width="105.759" height="5.519" rx="2.76" transform="translate(0 9.199)" fill="#dde3e9"/>
          </g>
          <g id="Check-4" data-name="Check" transform="translate(182.99 11.793)">
            <circle id="Background-8" data-name="Background" cx="6.604" cy="6.604" r="6.604" fill="#dde3e9"/>
            <circle id="Indicator-4" data-name="Indicator" cx="2.83" cy="2.83" r="2.83" transform="translate(3.774 3.774)" fill="#f2f2f2"/>
          </g>
        </g>
        <g id="Row-7" data-name="Row" transform="translate(0 96.234)">
          <rect id="Container-7" data-name="Container" width="212.281" height="36.795" rx="4" fill="#fff"/>
          <g id="Text_Stuff-5" data-name="Text Stuff" transform="translate(8.491 11.039)">
            <rect id="Label-9" data-name="Label" width="157.559" height="5.519" rx="2.76" fill="#dde3e9"/>
            <rect id="Label-10" data-name="Label" width="105.759" height="5.519" rx="2.76" transform="translate(0 9.199)" fill="#dde3e9"/>
          </g>
          <g id="Check-5" data-name="Check" transform="translate(182.99 11.793)">
            <circle id="Background-9" data-name="Background" cx="6.604" cy="6.604" r="6.604" fill="#dde3e9"/>
            <circle id="Indicator-5" data-name="Indicator" cx="2.83" cy="2.83" r="2.83" transform="translate(3.774 3.774)" fill="#afb9c5"/>
          </g>
        </g>
        <g id="Row-8" data-name="Row" transform="translate(0 229.263)">
          <rect id="Container-8" data-name="Container" width="212.281" height="36.795" rx="4" fill="#fff"/>
          <g id="Text_Stuff-6" data-name="Text Stuff" transform="translate(8.491 11.039)">
            <rect id="Label-11" data-name="Label" width="157.559" height="5.519" rx="2.76" fill="#dde3e9"/>
            <rect id="Label-12" data-name="Label" width="105.759" height="5.519" rx="2.76" transform="translate(0 9.199)" fill="#dde3e9"/>
          </g>
          <g id="Check-6" data-name="Check" transform="translate(182.99 11.793)">
            <circle id="Background-10" data-name="Background" cx="6.604" cy="6.604" r="6.604" fill="#dde3e9"/>
            <circle id="Indicator-6" data-name="Indicator" cx="2.83" cy="2.83" r="2.83" transform="translate(3.774 3.774)" fill="#f2f2f2"/>
          </g>
        </g>
        <g id="Row-9" data-name="Row" transform="translate(0 184.92)">
          <rect id="Container-9" data-name="Container" width="212.281" height="36.795" rx="4" fill="#fff"/>
          <g id="Text_Stuff-7" data-name="Text Stuff" transform="translate(8.491 11.039)">
            <rect id="Label-13" data-name="Label" width="157.559" height="5.519" rx="2.76" fill="#dde3e9"/>
            <rect id="Label-14" data-name="Label" width="105.759" height="5.519" rx="2.76" transform="translate(0 9.199)" fill="#dde3e9"/>
          </g>
          <g id="Check-7" data-name="Check" transform="translate(182.99 11.793)">
            <circle id="Background-11" data-name="Background" cx="6.604" cy="6.604" r="6.604" fill="#dde3e9"/>
            <circle id="Indicator-7" data-name="Indicator" cx="2.83" cy="2.83" r="2.83" transform="translate(3.774 3.774)" fill="#f2f2f2"/>
          </g>
        </g>
        <g id="Row-10" data-name="Row" transform="translate(0 140.577)">
          <rect id="Container-10" data-name="Container" width="212.281" height="36.795" rx="4" fill="#fff"/>
          <g id="Text_Stuff-8" data-name="Text Stuff" transform="translate(8.491 11.039)">
            <rect id="Label-15" data-name="Label" width="157.559" height="5.519" rx="2.76" fill="#dde3e9"/>
            <rect id="Label-16" data-name="Label" width="105.759" height="5.519" rx="2.76" transform="translate(0 9.199)" fill="#dde3e9"/>
          </g>
          <g id="Check-8" data-name="Check" transform="translate(182.99 11.793)">
            <circle id="Background-12" data-name="Background" cx="6.604" cy="6.604" r="6.604" fill="#dde3e9"/>
            <circle id="Indicator-8" data-name="Indicator" cx="2.83" cy="2.83" r="2.83" transform="translate(3.774 3.774)" fill="#f2f2f2"/>
          </g>
        </g>
      </g>
    </g>
    <g id="Pie_Chart" data-name="Pie Chart" transform="translate(234.334 1250.884) rotate(180)">
      <path id="Value" d="M0,35.979C0,16.194,15.989,0,35.524,0V35.979L11.247,62.167A35.653,35.653,0,0,1,0,35.979Z" transform="translate(71.048 71.048) rotate(180)" fill="#f2f2f2"/>
      <path id="Value-2" data-name="Value" d="M24.516,0H60.391a35.548,35.548,0,0,1-9.763,24.277A36.158,36.158,0,0,1,24.516,35.524,36.668,36.668,0,0,1,0,25.856Z" transform="translate(60.98 35.524) rotate(180)" fill="#afb9c5"/>
      <path id="Value-3" data-name="Value" d="M35.523,35.524H71.047a35.072,35.072,0,0,0-2.8-13.792A35.879,35.879,0,0,0,49.315,2.8,35.073,35.073,0,0,0,35.523,0V35.524Zm-3.552-3.552,0,0L17.762,0C9.562,3.456,2.923,10.1,0,17.762L31.967,31.97Z" transform="translate(71.047 71.048) rotate(180)" fill="#c5cfd6"/>
    </g>
  </g>
</svg>
