<svg xmlns="http://www.w3.org/2000/svg" xmlns:xlink="http://www.w3.org/1999/xlink" width="403.826" height="519.614" viewBox="0 0 403.826 519.614">
  <defs>
    <filter id="base" x="46.911" y="0" width="356.914" height="519.614" filterUnits="userSpaceOnUse">
      <feOffset dx="-10" dy="22" input="SourceAlpha"/>
      <feGaussianBlur stdDeviation="17" result="blur"/>
      <feFlood flood-opacity="0.102"/>
      <feComposite operator="in" in2="blur"/>
      <feComposite in="SourceGraphic"/>
    </filter>
  </defs>
  <g id="Group_14" data-name="Group 14" transform="translate(-77.322 -125.359)">
    <g id="Group_2" data-name="Group 2" transform="translate(185.233 187.349) rotate(-10)">
      <g transform="matrix(0.98, 0.17, -0.17, 0.98, -95.51, -79.79)" filter="url(#base)">
        <rect id="base-2" data-name="base" width="189.981" height="390.558" rx="20" transform="translate(107.91 61.99) rotate(-10)" fill="#f1f1f1"/>
      </g>
      <rect id="base-3" data-name="base" width="181.548" height="375.567" rx="15" transform="translate(4.216 4.685)" fill="#4e5155"/>
      <circle id="Ellipse_1" data-name="Ellipse 1" cx="5.153" cy="5.153" r="5.153" transform="translate(89.836 11.689)" fill="#f2f2f2"/>
      <g id="Rows" transform="translate(15.123 92.729)">
        <g id="Row" transform="translate(0)">
          <rect id="Container" width="159.735" height="54.291" rx="4" fill="#73787e"/>
          <g id="Text_Stuff" data-name="Text Stuff" transform="translate(9.049 16.287)">
            <rect id="Label" width="101.423" height="8.144" rx="3" transform="translate(0)" fill="#dde3e9"/>
            <rect id="Label-2" data-name="Label" width="68.078" height="8.144" rx="3" transform="translate(0 13.573)" fill="#dde3e9"/>
          </g>
          <g id="Check" transform="translate(136.945 20.108)">
            <circle id="Background" cx="7.038" cy="7.038" r="7.038" fill="#dde3e9"/>
            <circle id="Indicator" cx="3.016" cy="3.016" r="3.016" transform="translate(4.022 4.022)" fill="#f2f2f2"/>
          </g>
        </g>
        <g id="Row-2" data-name="Row" transform="translate(0 62.334)">
          <rect id="Background-2" data-name="Background" width="159.735" height="42.227" rx="4" fill="#73787e"/>
          <g id="Text" transform="translate(39.21 12.668)">
            <rect id="Name" width="101.423" height="6.334" rx="3" transform="translate(0)" fill="#dde3e9"/>
            <rect id="Name-2" data-name="Name" width="68.078" height="6.334" rx="3" transform="translate(0 10.557)" fill="#dde3e9"/>
          </g>
          <circle id="Avatar" cx="12.065" cy="12.065" r="12.065" transform="translate(9.049 9.049)" fill="#c5cfd6"/>
        </g>
        <g id="Row-3" data-name="Row" transform="translate(0 112.604)">
          <path id="Container-2" data-name="Container" d="M4,0H155.735a4,4,0,0,1,4,4V38.227a4,4,0,0,1-4,4H4a4,4,0,0,1-4-4V4A4,4,0,0,1,4,0Z" fill="#73787e"/>
          <g id="Text_Stuff-2" data-name="Text Stuff" transform="translate(9.049 12.668)">
            <rect id="Label-3" data-name="Label" width="101.423" height="6.334" rx="3" transform="translate(0)" fill="#dde3e9"/>
            <rect id="Label-4" data-name="Label" width="68.078" height="6.334" rx="3" transform="translate(0 10.557)" fill="#afb9c5"/>
          </g>
          <g id="Check-2" data-name="Check" transform="translate(136.945 14.076)">
            <circle id="Background-3" data-name="Background" cx="7.038" cy="7.038" r="7.038" fill="#dde3e9"/>
            <circle id="Indicator-2" data-name="Indicator" cx="3.016" cy="3.016" r="3.016" transform="translate(4.022 4.022)" fill="#f2f2f2"/>
          </g>
        </g>
        <g id="Row-4" data-name="Row" transform="translate(0 162.874)">
          <rect id="Background-4" data-name="Background" width="159.735" height="42.227" rx="4" fill="#73787e"/>
          <g id="Text-2" data-name="Text" transform="translate(39.21 12.668)">
            <rect id="Name-3" data-name="Name" width="101.423" height="6.334" rx="3" transform="translate(0)" fill="#dde3e9"/>
            <rect id="Name-4" data-name="Name" width="68.078" height="6.334" rx="3" transform="translate(0 10.557)" fill="#dde3e9"/>
          </g>
          <circle id="Avatar-2" data-name="Avatar" cx="12.065" cy="12.065" r="12.065" transform="translate(9.049 9.049)" fill="#c5cfd6"/>
        </g>
      </g>
    </g>
    <g id="Group_11" data-name="Group 11" transform="translate(193.861 126.805) rotate(45)">
      <path id="Union_2" data-name="Union 2" d="M45.8,164.811a4,4,0,0,1-4-4v-57.9A51.916,51.916,0,0,1,0,51.952,51.964,51.964,0,0,1,99.819,31.73,52.009,52.009,0,0,1,72.173,99.82a51.512,51.512,0,0,1-10.071,3.1v57.9a4,4,0,0,1-4,4ZM39.166,21.69a32.949,32.949,0,1,0,12.785-2.581A32.725,32.725,0,0,0,39.166,21.69Z" transform="translate(0 0)" fill="#fff"/>
    </g>
  </g>
</svg>
