<?xml version="1.0" encoding="UTF-8" standalone="no"?>
<!DOCTYPE svg PUBLIC "-//W3C//DTD SVG 1.1//EN" "http://www.w3.org/Graphics/SVG/1.1/DTD/svg11.dtd">
<svg width="100%" height="100%" viewBox="0 0 589 538" version="1.1" xmlns="http://www.w3.org/2000/svg" xmlns:xlink="http://www.w3.org/1999/xlink" xml:space="preserve" xmlns:serif="http://www.serif.com/" style="fill-rule:evenodd;clip-rule:evenodd;stroke-linecap:round;stroke-linejoin:round;">
    <g id="Artboard1" transform="matrix(1.0179,0,0,1,0,0)">
        <rect x="0" y="0" width="578.16" height="538" style="fill:none;"/>
        <g id="Group_80" transform="matrix(0.98241,0,0,1,-814.467,-41.557)">
            <g id="Head_Front_Wavy" transform="matrix(1,0,0,1,896.104,151.074)">
                <g id="Head" transform="matrix(1,0,0,1,43.626,25.045)">
                    <path id="Head-2" d="M0,58.975L6.675,27.863C2.953,23.494 0.433,18.139 0.854,12.139C2.067,-5.15 26.134,-1.347 30.815,7.379C35.496,16.105 34.94,38.239 28.89,39.8C26.477,40.422 21.337,38.9 16.105,35.745L19.389,58.976L0,58.975Z" style="fill:rgb(178,139,103);fill-rule:nonzero;"/>
                </g>
                <g id="hair" transform="matrix(1,0,0,1,12.926,18.581)">
                    <path d="M63.345,17.76C63.093,16.581 62.745,15.425 62.305,14.303C61.798,12.951 61.112,11.673 60.265,10.503C58.746,8.31 56.928,6.34 54.865,4.649C51.26,1.549 46.55,0.036 41.814,0.455C39.432,0.741 37.171,1.662 35.266,3.12C33.518,4.463 31.837,6.44 29.575,6.582C27.113,6.736 24.856,4.563 22.881,3.221C20.733,1.691 18.275,0.652 15.681,0.177C11.363,-0.59 6.956,1.076 4.225,4.508C1.028,8.314 -1.3,13.9 0.8,18.939C1.152,19.844 1.703,20.659 2.413,21.322C3.074,21.922 4.083,22.562 4.351,23.522C4.636,24.542 3.785,25.858 3.451,26.779C2.908,28.088 2.661,29.501 2.729,30.916C3.101,33.273 4.253,35.438 6,37.063C7.549,38.566 9.512,39.574 11.636,39.957C13.028,40.256 14.454,40.366 15.876,40.284C16.554,40.203 17.225,40.069 17.883,39.884C18.447,39.751 19.043,39.895 19.483,40.273C21.977,41.912 24.957,42.651 27.927,42.366C30.475,42.154 33.411,41.536 35.49,39.791C37.798,37.852 37.752,35.179 37.209,32.323C37.784,32.608 39.376,32.785 38.425,31.648C37.958,31.257 37.426,30.953 36.853,30.748C36.263,30.439 35.731,30.03 35.281,29.538C33.516,27.507 35.299,23.375 37.517,22.694C40.817,21.682 41.552,26.344 43.905,27.55C45.258,28.243 46.673,27.296 47.687,26.328C49.005,24.949 50.051,23.334 50.769,21.567C51.427,20.128 52.04,18.667 52.71,17.236C53.023,16.567 54.11,14.677 53.563,13.921C55.924,13.45 58.554,14.431 60.588,15.721C61.423,16.198 62.095,16.915 62.518,17.778C62.618,17.978 62.823,18.578 63.086,18.602C63.575,18.648 63.392,18.05 63.344,17.766" style="fill:rgb(25,24,71);fill-rule:nonzero;"/>
                </g>
            </g>
            <g id="Bottom_Standing_Shorts" transform="matrix(1,0,0,1,829.05,305.379)">
                <g id="Leg" transform="matrix(1,0,0,1,103.409,0)">
                    <path d="M0,0L30.4,99.389L45.127,183.913L56.675,183.913L41.114,0L0,0Z" style="fill:rgb(153,118,89);fill-rule:nonzero;"/>
                </g>
                <g id="Leg-2" transform="matrix(1,0,0,1,69.933,0)">
                    <path d="M22.6,0C24.665,54.57 22.235,82.718 21.773,87.676C21.311,92.634 14.982,124.781 0,185.577L12.3,181.351C35.977,125.592 44.046,96.613 46.761,89.291C49.476,81.969 56.694,52.206 68.4,0L22.6,0Z" style="fill:rgb(178,139,103);fill-rule:nonzero;"/>
                </g>
                <g transform="matrix(1,0,0,1,68.67,176.054)">
                    <g id="Left_Shoe">
                        <path id="shoe" d="M3.614,4.13C3.447,4.074 3.272,4.045 3.096,4.045C2.376,4.045 1.739,4.526 1.542,5.219L0,10.652C0.111,12.791 0.354,14.921 0.728,17.03L46.294,17.03C46.294,17.03 48.07,11.158 44.243,10.69C40.416,10.222 37.885,9.845 37.885,9.845L16.707,0.4C16.603,0.354 16.491,0.33 16.378,0.33C16.051,0.33 15.755,0.528 15.631,0.83L14.27,4.13C14.27,4.13 10.727,5.787 8.512,5.787L3.614,4.13Z" style="fill:rgb(228,228,228);fill-rule:nonzero;"/>
                    </g>
                </g>
                <g transform="matrix(1,0,0,1,144.611,176.054)">
                    <g id="Right_Shoe">
                        <path id="shoe-2" d="M3.614,4.13C3.447,4.074 3.272,4.045 3.096,4.045C2.376,4.045 1.739,4.526 1.542,5.219L0,10.652C0.111,12.791 0.354,14.921 0.728,17.03L46.294,17.03C46.294,17.03 48.07,11.158 44.243,10.69C40.416,10.222 37.885,9.845 37.885,9.845L16.707,0.4C16.603,0.354 16.491,0.33 16.378,0.33C16.051,0.33 15.755,0.528 15.631,0.83L14.27,4.13C14.27,4.13 10.727,5.787 8.512,5.787L3.614,4.13Z" style="fill:rgb(228,228,228);fill-rule:nonzero;"/>
                    </g>
                </g>
                <g id="Bottom" transform="matrix(1,0,0,1,99.369,0)">
                    <path d="M0,0L12.926,50.638L52.408,50.638L46.521,0L0,0Z" style="fill:rgb(105,161,172);fill-rule:nonzero;"/>
                </g>
                <g id="Bottom-2" transform="matrix(1,0,0,1,88.089,0)">
                    <path d="M4.01,0C-2.37,19.123 1.586,50.638 1.586,50.638L41.875,50.638L52.954,0L4.01,0Z" style="fill:rgb(137,197,204);fill-rule:nonzero;"/>
                </g>
            </g>
            <g id="Body_Long_Sleeve_1" transform="matrix(1,0,0,1,871.242,212.635)">
                <g id="Skin" transform="matrix(1,0,0,1,0,80.545)">
                    <path d="M1.033,73.021C0.094,72.442 -0.935,70.261 1.55,68.558C7.744,64.313 16.669,56.884 17.875,54.438C20.342,49.435 28.742,0.68 28.742,0.68L46.333,0.75C46.333,0.75 30.041,53.322 28.742,56.538C26.794,61.363 30.916,68.712 32.678,72.661C29.9,73.9 28.61,72.318 27.2,70.731C25.694,69.04 24.048,67.349 20.311,69.087C15.529,71.311 11.576,74.841 6.864,74.84C4.787,74.8 2.764,74.169 1.033,73.021ZM152.49,25.688L125.9,14.667L131.836,0L158.687,19.709C165.077,21.31 171.218,23.777 176.94,27.041C178.095,28.092 179.489,30.221 174.703,29.854C169.917,29.487 164.865,29.314 164.203,30.946C163.541,32.578 166.439,34.529 165.103,36.732C164.983,36.937 164.758,37.059 164.521,37.046C162.949,37.045 158.939,33.259 152.49,25.688Z" style="fill:rgb(178,139,103);fill-rule:nonzero;"/>
                </g>
                <g id="Coat_Back" transform="matrix(0.996,0.087,-0.087,0.996,78.896,5.572)">
                    <path d="M0,1.878L7.142,0C36.079,20.878 51.034,64.542 86.08,85.3L79,95.828C21.173,93.753 2.231,40.555 0,1.878Z" style="fill:rgb(213,108,18);fill-rule:nonzero;"/>
                </g>
                <g id="Shirt" transform="matrix(1,0,0,1,47.002,2.956)">
                    <path d="M0,95.922L64.4,95.922C67.343,95.922 66.788,91.674 66.363,89.531C61.453,64.793 42.287,38.131 42.287,2.912L23.714,0C8.348,24.7 3.034,55.117 0,95.922Z" style="fill:rgb(221,227,233);fill-rule:nonzero;"/>
                </g>
                <g id="Coat_Front" transform="matrix(1,0,0,1,17.455,0)">
                    <path d="M0.085,134.218C-1.4,86.19 16.791,49.231 32.015,26.947C28.513,26.861 25.316,24.897 23.655,21.813C16.865,9.567 19.317,2.824 26.574,0.607C33.831,-1.61 40.3,2.956 51.863,2.956C52.324,2.954 52.785,2.987 53.241,3.056L59.406,3.408C59.406,3.408 84.435,88.2 73.212,116.548L22.305,116.548C19.863,122.603 17.055,128.503 13.898,134.218L0.085,134.218Z" style="fill:rgb(255,130,5);fill-rule:nonzero;"/>
                </g>
                <g id="Shade" transform="matrix(1,0,0,1,39.76,85.797)">
                    <path d="M19.026,30.751L0,30.751C3.489,22.374 7.339,12.028 11.44,0C13.148,14.823 15.7,25.168 19.025,30.749L19.026,30.751Z" style="fill-opacity:0.1;fill-rule:nonzero;"/>
                </g>
            </g>
            <g id="Group_6" transform="matrix(0.97437,0.224951,-0.224951,0.97437,1126.6,41.557)">
                <path id="wifi-solid" d="M234.983,45.478C169.412,-15.171 67.429,-15.149 1.883,45.478C0.682,46.591 -0.001,48.156 -0.001,49.793C-0.001,51.367 0.631,52.878 1.753,53.983L14.426,66.556C16.696,68.793 20.371,68.856 22.716,66.697C76.722,17.221 160.136,17.21 214.153,66.697C216.499,68.854 220.172,68.792 222.443,66.556L235.115,53.984C236.236,52.878 236.867,51.368 236.867,49.794C236.867,48.157 236.184,46.591 234.983,45.478ZM118.433,118.433C105.439,118.433 94.746,129.126 94.746,142.12C94.746,155.114 105.439,165.807 118.433,165.807C131.427,165.807 142.12,155.114 142.12,142.12L142.12,142.119C142.12,129.126 131.428,118.434 118.435,118.434L118.433,118.434L118.433,118.433ZM193.442,87.5C150.784,49.775 86.034,49.816 43.424,87.5C42.169,88.61 41.45,90.207 41.45,91.882C41.45,93.457 42.086,94.967 43.213,96.068L55.959,108.648C58.178,110.838 61.746,110.97 64.12,108.948C95.221,82.236 141.641,82.236 172.742,108.948C175.115,110.971 178.685,110.84 180.903,108.648L193.649,96.068C194.777,94.967 195.414,93.456 195.414,91.88C195.414,90.206 194.696,88.61 193.442,87.5Z" style="fill:white;fill-opacity:0.24;fill-rule:nonzero;"/>
                <g id="Group_2" transform="matrix(1,0,0,1,42.104,118.038)">
                    <g transform="matrix(0.994628,0.00384111,-0.00384111,0.994628,-1.985,1.0012)">
                        <path id="base-2" d="M152.658,20.108C152.658,9.01 143.648,0 132.55,0L20.108,0C9.01,0 0,9.01 0,20.108L0,293.724C0,304.822 9.01,313.832 20.108,313.832L132.55,313.832C143.648,313.832 152.658,304.822 152.658,293.724L152.658,20.108Z" style="fill:white;"/>
                    </g>
                    <g id="base-3" transform="matrix(1,0,0,1,0.46489,4.43885)">
                        <path d="M145.883,17C145.883,7.617 138.266,0 128.883,0L17,0C7.617,0 0,7.617 0,17L0,284.786C0,294.169 7.617,301.786 17,301.786L128.883,301.786C138.266,301.786 145.883,294.169 145.883,284.786L145.883,17Z" style="fill:rgb(137,197,204);"/>
                    </g>
                    <g id="Ellipse_1" transform="matrix(1,0,0,1,72.188,9.393)">
                        <circle cx="4.141" cy="4.141" r="4.141" style="fill:white;"/>
                    </g>
                </g>
            </g>
            <g id="Group_4" transform="matrix(1,0,0,1,1252.87,96.162)">
                <g id="asterisk-solid" transform="matrix(1,0,0,1,-21.337,0)">
                    <path d="M39.508,13.287L33.852,10.181L39.508,7.075C39.813,6.908 40.003,6.586 40.003,6.239C40.003,6.071 39.959,5.906 39.875,5.761L39.1,4.42C38.93,4.125 38.614,3.943 38.273,3.943C38.099,3.943 37.928,3.991 37.779,4.081L32.261,7.426L32.4,0.975L32.4,0.954C32.4,0.431 31.97,-0 31.446,-0L29.9,-0C29.376,-0 28.946,0.431 28.946,0.954L28.946,0.975L29.084,7.426L23.562,4.081C23.413,3.991 23.242,3.943 23.068,3.943C22.727,3.943 22.411,4.125 22.241,4.42L21.466,5.762C21.382,5.907 21.338,6.072 21.338,6.239C21.338,6.587 21.528,6.908 21.833,7.076L27.489,10.182L21.833,13.288C21.528,13.455 21.338,13.777 21.338,14.124C21.338,14.292 21.382,14.457 21.466,14.602L22.241,15.944C22.411,16.239 22.727,16.421 23.068,16.421C23.242,16.421 23.413,16.373 23.562,16.283L29.08,12.938L28.942,19.389L28.942,19.409C28.942,19.933 29.372,20.364 29.896,20.364L31.445,20.364C31.969,20.364 32.399,19.933 32.399,19.409L32.399,19.389L32.261,12.938L37.779,16.283C37.928,16.373 38.099,16.421 38.273,16.421C38.614,16.421 38.93,16.239 39.1,15.944L39.875,14.602C39.959,14.457 40.004,14.292 40.004,14.124C40.004,13.776 39.813,13.454 39.508,13.287Z" style="fill:rgb(244,244,244);fill-rule:nonzero;"/>
                </g>
                <g id="asterisk-solid-2" transform="matrix(1,0,0,1,0.749,0)">
                    <path d="M39.508,13.287L33.852,10.181L39.508,7.075C39.813,6.908 40.003,6.586 40.003,6.239C40.003,6.071 39.959,5.906 39.875,5.761L39.1,4.42C38.93,4.125 38.614,3.943 38.273,3.943C38.099,3.943 37.928,3.991 37.779,4.081L32.261,7.426L32.4,0.975L32.4,0.954C32.4,0.431 31.97,-0 31.446,-0L29.9,-0C29.376,-0 28.946,0.431 28.946,0.954L28.946,0.975L29.084,7.426L23.562,4.081C23.413,3.991 23.242,3.943 23.068,3.943C22.727,3.943 22.411,4.125 22.241,4.42L21.466,5.762C21.382,5.907 21.338,6.072 21.338,6.239C21.338,6.587 21.528,6.908 21.833,7.076L27.489,10.182L21.833,13.288C21.528,13.455 21.338,13.777 21.338,14.124C21.338,14.292 21.382,14.457 21.466,14.602L22.241,15.944C22.411,16.239 22.727,16.421 23.068,16.421C23.242,16.421 23.413,16.373 23.562,16.283L29.08,12.938L28.942,19.389L28.942,19.409C28.942,19.933 29.372,20.364 29.896,20.364L31.445,20.364C31.969,20.364 32.399,19.933 32.399,19.409L32.399,19.389L32.261,12.938L37.779,16.283C37.928,16.373 38.099,16.421 38.273,16.421C38.614,16.421 38.93,16.239 39.1,15.944L39.875,14.602C39.959,14.457 40.004,14.292 40.004,14.124C40.004,13.776 39.813,13.454 39.508,13.287Z" style="fill:rgb(244,244,244);fill-rule:nonzero;"/>
                </g>
                <g id="asterisk-solid-3" transform="matrix(1,0,0,1,22.836,0)">
                    <path d="M39.508,13.287L33.852,10.181L39.508,7.075C39.813,6.908 40.003,6.586 40.003,6.239C40.003,6.071 39.959,5.906 39.875,5.761L39.1,4.42C38.93,4.125 38.614,3.943 38.273,3.943C38.099,3.943 37.928,3.991 37.779,4.081L32.261,7.426L32.4,0.975L32.4,0.954C32.4,0.431 31.97,-0 31.446,-0L29.9,-0C29.376,-0 28.946,0.431 28.946,0.954L28.946,0.975L29.084,7.426L23.562,4.081C23.413,3.991 23.242,3.943 23.068,3.943C22.727,3.943 22.411,4.125 22.241,4.42L21.466,5.762C21.382,5.907 21.338,6.072 21.338,6.239C21.338,6.587 21.528,6.908 21.833,7.076L27.489,10.182L21.833,13.288C21.528,13.455 21.338,13.777 21.338,14.124C21.338,14.292 21.382,14.457 21.466,14.602L22.241,15.944C22.411,16.239 22.727,16.421 23.068,16.421C23.242,16.421 23.413,16.373 23.562,16.283L29.08,12.938L28.942,19.389L28.942,19.409C28.942,19.933 29.372,20.364 29.896,20.364L31.445,20.364C31.969,20.364 32.399,19.933 32.399,19.409L32.399,19.389L32.261,12.938L37.779,16.283C37.928,16.373 38.099,16.421 38.273,16.421C38.614,16.421 38.93,16.239 39.1,15.944L39.875,14.602C39.959,14.457 40.004,14.292 40.004,14.124C40.004,13.776 39.813,13.454 39.508,13.287Z" style="fill:rgb(244,244,244);fill-rule:nonzero;"/>
                </g>
            </g>
            <g id="Group_5" transform="matrix(0.998,0.07,-0.07,0.998,1171.05,69.976)">
                <path id="Rectangle_3" d="M49.418,3.998C49.418,1.792 47.626,0 45.42,0L3.998,0C1.792,0 0,1.792 0,3.998L0,61.361C0,63.567 1.792,65.359 3.998,65.359L45.42,65.359C47.626,65.359 49.418,63.567 49.418,61.361L49.418,3.998Z" style="fill:rgb(244,244,244);"/>
                <g id="Rectangle_5" transform="matrix(1,0,0,1,2.657,2.657)">
                    <rect x="0" y="0" width="44.104" height="53.669" style="fill:rgb(211,211,211);"/>
                </g>
                <g id="Head_Front" transform="matrix(1,0,0,1,11.444,10.494)">
                    <g id="Head-3" transform="matrix(1,0,0,1,6.756,12.611)">
                        <path id="Head-4" d="M0,33.221L3.842,15.7C1.576,13.32 0.366,10.122 0.491,6.838C1.191,-2.901 15.042,-0.762 17.736,4.157C20.43,9.076 20.111,21.541 16.628,22.419C15.239,22.769 12.28,21.911 9.269,20.135L11.159,33.221L0,33.221Z" style="fill:rgb(178,139,103);fill-rule:nonzero;"/>
                    </g>
                    <path id="hair-2" d="M19.973,11.169C18.479,10.751 16.928,10.579 15.379,10.66C15.907,9.397 16.1,8.019 15.938,6.66C15.698,5.393 15.26,4.172 14.638,3.042C14.412,2.488 14.087,1.98 13.68,1.542C13.25,1.129 12.715,0.841 12.134,0.71C11.546,0.58 10.936,0.58 10.348,0.71C10.088,0.765 9.855,0.884 9.601,0.95C9.347,1.016 9.214,0.85 9.024,0.69C8.532,0.312 7.942,0.082 7.324,0.028C6.668,-0.042 6.006,0.038 5.385,0.26C4.767,0.463 4.212,0.821 3.772,1.3C3.571,1.519 3.408,1.77 3.289,2.042C3.242,2.155 3.234,2.222 3.122,2.263C3.01,2.304 2.897,2.302 2.789,2.339C1.728,2.715 0.863,3.502 0.389,4.523C0.065,5.433 -0.066,6.401 0.006,7.364C0.269,9.309 0.991,11.163 2.111,12.774C3.042,13.765 4.252,14.45 5.581,14.738C4.762,15.739 4.147,16.89 3.768,18.126C3.318,19.457 3.039,20.84 2.938,22.241C2.801,23.597 2.87,24.965 3.144,26.3C3.378,27.482 4.088,28.517 5.106,29.162C5.587,29.443 6.093,29.681 6.616,29.873C7.12,30.082 7.64,30.249 8.172,30.373C9.199,30.685 10.318,30.446 11.127,29.74C11.43,29.435 11.696,29.096 11.921,28.729C11.995,28.601 12.039,28.518 11.95,28.393C11.826,28.25 11.686,28.122 11.532,28.012C10.746,27.354 10.246,26.416 10.138,25.397C10.014,24.323 10.301,22.938 11.343,22.469C12.629,21.891 14.043,22.554 15.188,23.169C15.591,21.452 16.697,19.981 18.235,19.117C19.965,18.245 21.95,18.143 23.727,17.395C24.209,17.227 24.645,16.949 25,16.583C25.164,16.412 25.289,16.207 25.367,15.983C25.394,15.707 25.301,15.432 25.113,15.228C23.744,13.488 21.983,12.097 19.973,11.169Z" style="fill:rgb(25,24,71);fill-rule:nonzero;"/>
                </g>
            </g>
            <g id="_" transform="matrix(0.981627,-0.190809,0.190809,0.981627,896.092,155.669)">
                <path d="M9.982,-11.178C9.982,-12.773 10.342,-14.091 11.063,-15.134C11.784,-16.177 12.834,-17.327 14.214,-18.584C15.226,-19.504 15.97,-20.278 16.445,-20.907C16.92,-21.536 17.158,-22.249 17.158,-23.046C17.158,-24.181 16.706,-25.078 15.801,-25.737C14.896,-26.396 13.693,-26.726 12.19,-26.726C10.749,-26.726 9.468,-26.427 8.349,-25.829C7.23,-25.231 6.287,-24.395 5.52,-23.322L-0.046,-26.588C1.242,-28.551 2.982,-30.069 5.175,-31.142C7.368,-32.215 9.967,-32.752 12.972,-32.752C16.499,-32.752 19.328,-32.001 21.459,-30.498C23.59,-28.995 24.656,-26.91 24.656,-24.242C24.656,-22.985 24.449,-21.881 24.035,-20.93C23.621,-19.979 23.115,-19.174 22.517,-18.515C21.919,-17.856 21.145,-17.097 20.194,-16.238C19.059,-15.226 18.231,-14.375 17.71,-13.685C17.189,-12.995 16.928,-12.159 16.928,-11.178L9.982,-11.178ZM13.478,0.368C12.221,0.368 11.17,-0.038 10.327,-0.851C9.484,-1.664 9.062,-2.653 9.062,-3.818C9.062,-4.983 9.476,-5.957 10.304,-6.739C11.132,-7.521 12.19,-7.912 13.478,-7.912C14.766,-7.912 15.824,-7.521 16.652,-6.739C17.48,-5.957 17.894,-4.983 17.894,-3.818C17.894,-2.653 17.472,-1.664 16.629,-0.851C15.786,-0.038 14.735,0.368 13.478,0.368Z" style="fill:rgb(244,244,244);fill-rule:nonzero;stroke:rgb(244,244,244);stroke-width:1px;"/>
            </g>
            <g id="Exclusion_1" transform="matrix(1,0,0,1,1088.46,107.262)">
                <path d="M17.774,50.09L4.021,29.223C-1.747,22.138 -1.233,11.722 5.206,5.24C8.538,1.918 13.057,0.051 17.762,0.051C27.519,0.051 35.547,8.079 35.547,17.836L35.547,17.89C35.555,21.859 34.241,25.72 31.814,28.86L17.774,50.089L17.774,50.09ZM17.774,8.921C13.268,8.941 9.571,12.655 9.571,17.161C9.571,19.34 10.436,21.433 11.974,22.977C13.514,24.511 15.601,25.373 17.774,25.373C22.282,25.373 25.992,21.663 25.992,17.155C25.992,14.971 25.121,12.874 23.574,11.333C22.042,9.785 19.952,8.915 17.774,8.92L17.774,8.921Z" style="fill:rgb(242,242,242);fill-rule:nonzero;"/>
            </g>
            <g id="Group_7" transform="matrix(0.906308,0.422618,-0.422618,0.906308,1330.31,136.896)">
                <path id="Rectangle_3-2" d="M42.955,4C42.955,1.792 41.163,0 38.955,0L4,0C1.792,0 0,1.792 0,4L0,58.935C0,61.143 1.792,62.935 4,62.935L38.955,62.935C41.163,62.935 42.955,61.143 42.955,58.935L42.955,4Z" style="fill:rgb(244,244,244);"/>
                <g id="Rectangle_6" transform="matrix(1,0,0,1,6.112,11.861)">
                    <rect x="0" y="0" width="12.926" height="2.424" style="fill:rgb(141,141,141);"/>
                </g>
                <g id="Rectangle_7" transform="matrix(1,0,0,1,10.96,18.324)">
                    <rect x="0" y="0" width="28.276" height="2.424" style="fill:rgb(141,141,141);"/>
                </g>
                <g id="Rectangle_8" transform="matrix(1,0,0,1,4.497,23.979)">
                    <rect x="0" y="0" width="34.739" height="2.424" style="fill:rgb(141,141,141);"/>
                </g>
                <g id="Rectangle_9" transform="matrix(1,0,0,1,4.497,29.635)">
                    <rect x="0" y="0" width="34.739" height="2.424" style="fill:rgb(141,141,141);"/>
                </g>
                <g id="Rectangle_10" transform="matrix(1,0,0,1,4.497,35.29)">
                    <rect x="0" y="0" width="34.739" height="2.424" style="fill:rgb(141,141,141);"/>
                </g>
                <g id="Rectangle_11" transform="matrix(1,0,0,1,4.497,40.945)">
                    <rect x="0" y="0" width="34.739" height="2.424" style="fill:rgb(141,141,141);"/>
                </g>
                <g id="Rectangle_12" transform="matrix(1,0,0,1,28.733,49.832)">
                    <rect x="0" y="0" width="10.502" height="2.424" style="fill:rgb(141,141,141);"/>
                </g>
            </g>
        </g>
    </g>
</svg>
