<svg xmlns="http://www.w3.org/2000/svg" width="686" height="592.003" viewBox="0 0 686 592.003">
  <path id="Subtraction_2" data-name="Subtraction 2" d="M-7791.5,762a407.936,407.936,0,0,1-41.051-2.075,402,402,0,0,1-39.865-6.084c-12.927-2.645-25.873-5.973-38.477-9.892-12.458-3.875-24.869-8.417-36.888-13.5a401.5,401.5,0,0,1-68.2-37.019A404.288,404.288,0,0,1-8075.4,644.4a404.552,404.552,0,0,1-49.027-59.421,401.658,401.658,0,0,1-37.017-68.2c-5.087-12.031-9.63-24.441-13.5-36.888-3.919-12.606-7.248-25.552-9.892-38.477a402.12,402.12,0,0,1-6.086-39.867A407.763,407.763,0,0,1-8193,360.5a407.22,407.22,0,0,1,3.193-50.88,400.842,400.842,0,0,1,9.321-48.968A399.346,399.346,0,0,1-8145.016,170L-7507,170V643.807l-.6.6a404.471,404.471,0,0,1-59.421,49.025,401.589,401.589,0,0,1-68.2,37.019c-12.029,5.087-24.44,9.629-36.89,13.5-12.6,3.919-25.549,7.247-38.478,9.892a401.837,401.837,0,0,1-39.865,6.084A407.887,407.887,0,0,1-7791.5,762Z" transform="translate(8193 -169.998)" fill="#d2e9eb"/>
</svg>
