<svg xmlns="http://www.w3.org/2000/svg" width="685" height="442" viewBox="0 0 685 442">
  <path id="Subtraction_4" data-name="Subtraction 4" d="M767.5-2409a407.8,407.8,0,0,1-41.051-2.073,402.253,402.253,0,0,1-39.865-6.084c-12.927-2.645-25.873-5.973-38.478-9.893-12.46-3.876-24.871-8.419-36.888-13.5a401.623,401.623,0,0,1-68.2-37.018A404.453,404.453,0,0,1,484-2526.194V-2851h682.982c1.339,13.366,2.018,26.991,2.018,40.5a408.023,408.023,0,0,1-2.073,41.051,402.548,402.548,0,0,1-6.085,39.865c-2.648,12.94-5.977,25.886-9.894,38.477-3.871,12.448-8.413,24.859-13.5,36.888a401.556,401.556,0,0,1-37.018,68.2A404.361,404.361,0,0,1,1051.4-2526.6a404.445,404.445,0,0,1-59.421,49.027,401.56,401.56,0,0,1-68.2,37.018c-12.016,5.083-24.427,9.626-36.888,13.5-12.6,3.92-25.549,7.248-38.477,9.893a402.336,402.336,0,0,1-39.865,6.084A407.794,407.794,0,0,1,767.5-2409Z" transform="translate(-484 2850.999)" fill="#d2e9eb"/>
</svg>
